HIERARCHY
ROOT Hips
{
    OFFSET 0.000000 0.000000 0.000000
    CHANNELS 6 Xposition Yposition Zposition Zrotation Xrotation Yrotation
    JOINT Spine
    {
        OFFSET -0.000000 14.517291 0.000000
        CHANNELS 3 Zrotation Xrotation Yrotation
        JOINT Spine1
        {
            OFFSET -0.000000 37.558300 0.000000
            CHANNELS 3 Zrotation Xrotation Yrotation
            JOINT Neck
            {
                OFFSET -0.000000 37.404057 3.400369
                CHANNELS 3 Zrotation Xrotation Yrotation
                JOINT Head
                {
                    OFFSET -0.000000 24.785618 -3.540803
                    CHANNELS 3 Zrotation Xrotation Yrotation
                    End Site
                    {
                        OFFSET -0.000000 35.408028 0.000000
                    }
                }
            }
            JOINT LeftShoulder
            {
                OFFSET 6.992933 33.973492 -0.192664
                CHANNELS 3 Zrotation Xrotation Yrotation
                JOINT LeftArm
                {
                    OFFSET 21.527611 0.000000 0.000000
                    CHANNELS 3 Zrotation Xrotation Yrotation
                    JOINT LeftForeArm
                    {
                        OFFSET 56.353916 0.000000 0.000000
                        CHANNELS 3 Zrotation Xrotation Yrotation
                        JOINT LeftHand
                        {
                            OFFSET 47.774071 0.000000 0.000000
                            CHANNELS 3 Zrotation Xrotation Yrotation
                            End Site
                            {
                                OFFSET 26.556021 0.000000 0.000000
                            }
                        }
                    }
                }
            }
            JOINT RightShoulder
            {
                OFFSET -7.065357 33.973492 -0.192664
                CHANNELS 3 Zrotation Xrotation Yrotation
                JOINT RightArm
                {
                    OFFSET -21.527611 0.000000 0.000000
                    CHANNELS 3 Zrotation Xrotation Yrotation
                    JOINT RightForeArm
                    {
                        OFFSET -56.353916 0.000000 0.000000
                        CHANNELS 3 Zrotation Xrotation Yrotation
                        JOINT RightHand
                        {
                            OFFSET -47.774071 0.000000 0.000000
                            CHANNELS 3 Zrotation Xrotation Yrotation
                            End Site
                            {
                                OFFSET -26.556021 0.000000 0.000000
                            }
                        }
                    }
                }
            }
        }
    }
    JOINT LeftUpLeg
    {
        OFFSET 17.704014 0.000000 0.000000
        CHANNELS 3 Zrotation Xrotation Yrotation
        JOINT LeftLeg
        {
            OFFSET -0.000000 -81.181816 0.000000
            CHANNELS 3 Zrotation Xrotation Yrotation
            JOINT LeftFoot
            {
                OFFSET -0.000000 -62.821102 0.000000
                CHANNELS 3 Zrotation Xrotation Yrotation
                JOINT LeftToeBase
                {
                    OFFSET -0.000000 -11.507608 26.556021
                    CHANNELS 3 Zrotation Xrotation Yrotation
                    End Site
                    {
                        OFFSET -0.000000 0.000000 7.081605
                    }
                }
            }
        }
    }
    JOINT RightUpLeg
    {
        OFFSET -17.704014 0.000000 0.000000
        CHANNELS 3 Zrotation Xrotation Yrotation
        JOINT RightLeg
        {
            OFFSET -0.000000 -81.181816 0.000000
            CHANNELS 3 Zrotation Xrotation Yrotation
            JOINT RightFoot
            {
                OFFSET -0.000000 -62.821102 0.000000
                CHANNELS 3 Zrotation Xrotation Yrotation
                JOINT RightToeBase
                {
                    OFFSET -0.000000 -11.507608 26.556021
                    CHANNELS 3 Zrotation Xrotation Yrotation
                    End Site
                    {
                        OFFSET -0.000000 0.000000 7.081605
                    }
                }
            }
        }
    }
}
MOTION
Frames:    12
Frame Time:    0.008333
-11.022958    150.900879    -9.826394    0.970755    1.749434    28.898163    -0.718460    3.054298    14.115944    -5.198889    0.000860    4.699729    -0.641025    2.974816    -10.194616    13.845854    -3.018324    -8.215410    1.982278    2.006430    -6.322877    -42.722103    17.945127    -48.785625    -11.795985    -16.168951    -132.685944    2.272222    -40.265953    -6.586830    -5.267190    8.687504    6.996205    28.177046    25.923382    51.376640    -18.712700    -41.016895    -10.016750    18.623528    -38.542004    29.077211    -2.492220    -35.724777    -29.907988    -11.171725    24.227482    -23.710653    -9.937984    3.741541    28.033775    0.000000    0.000000    0.000000    5.056415    11.680204    -18.469410    2.643439    24.611017    -1.379592    -3.505090    -31.440422    -6.596887    0.000000    0.000000    0.000000    
-11.042386    150.902893    -9.832866    0.961593    1.768890    28.905869    -0.726087    3.054302    14.119281    -5.173864    -0.157912    4.693558    -0.674139    3.310673    -10.191129    13.924956    -3.229660    -8.171182    1.923220    2.161059    -6.496061    -42.694191    17.820875    -48.678661    -11.803162    -16.199629    -132.678146    2.209910    -40.297817    -6.643371    -5.241769    8.817406    7.130112    28.325077    26.074711    51.247669    -18.773838    -41.075645    -10.085604    18.637341    -38.619831    29.029966    -2.499183    -35.742455    -29.895727    -11.147830    24.207615    -23.749832    -9.959765    3.757318    28.053560    0.000000    0.000000    0.000000    5.057153    11.645791    -18.454330    2.654977    24.629475    -1.369426    -3.532061    -31.434790    -6.629868    0.000000    0.000000    0.000000    
-11.063026    150.908920    -9.838395    0.960644    1.785827    28.913027    -0.733909    3.063115    14.109392    -5.178642    -0.177392    4.689287    -0.668082    3.291025    -10.190830    13.918509    -3.233145    -8.172157    1.918141    2.171091    -6.494330    -42.679821    17.812542    -48.688095    -11.791899    -16.228640    -132.688049    2.201910    -40.304787    -6.659744    -5.226206    8.828448    7.111038    28.471283    26.227396    51.251720    -18.808378    -41.116180    -10.151804    18.713427    -38.661156    29.000063    -2.501047    -35.744648    -29.913548    -11.143890    24.168470    -23.762476    -9.954969    3.782226    28.075621    0.000000    0.000000    0.000000    5.056533    11.615471    -18.450493    2.659311    24.645435    -1.383980    -3.542626    -31.428551    -6.647172    0.000000    0.000000    0.000000    
-11.077749    150.913605    -9.842310    0.963557    1.798178    28.925476    -0.735961    3.063755    14.087697    -5.188308    -0.172379    4.682251    -0.654012    3.279756    -10.182053    13.906734    -3.266275    -8.162663    1.915923    2.168586    -6.487588    -42.692413    17.793083    -48.674122    -11.797309    -16.212173    -132.699387    2.197141    -40.307613    -6.672373    -5.209294    8.832263    7.098832    28.612446    26.384090    51.255840    -18.853313    -41.120754    -10.202955    18.717928    -38.682590    28.943977    -2.551434    -35.770882    -29.940958    -11.056648    24.272568    -23.980011    -10.008655    3.657994    28.212500    0.000000    0.000000    0.000000    5.051201    11.595752    -18.455597    2.661433    24.659575    -1.396833    -3.522551    -31.422709    -6.628559    0.000000    0.000000    0.000000    
-11.097004    150.919266    -9.850658    0.966710    1.810659    28.940178    -0.738707    3.072856    14.067147    -5.198627    -0.177040    4.675130    -0.639483    3.275129    -10.175947    13.889739    -3.300385    -8.156821    1.917988    2.174620    -6.484052    -42.689388    17.788733    -48.673565    -11.799245    -16.242498    -132.710022    2.177703    -40.339920    -6.673780    -5.182341    8.867934    7.077071    28.739548    26.480537    51.278023    -18.887974    -41.172398    -10.266546    18.726511    -38.747055    28.929663    -2.559843    -35.760937    -29.948248    -11.042105    24.221745    -23.997517    -10.002161    3.689433    28.223309    0.000000    0.000000    0.000000    5.050230    11.573786    -18.486013    2.655625    24.672235    -1.383140    -3.535527    -31.417259    -6.639869    0.000000    0.000000    0.000000    
-11.111617    150.922272    -9.857104    0.972120    1.818404    28.957321    -0.747243    3.071170    14.040928    -5.191073    -0.156985    4.667253    -0.643344    3.264741    -10.172499    13.888760    -3.335988    -8.148625    1.915839    2.172347    -6.475480    -42.702618    17.777996    -48.665180    -11.795794    -16.244846    -132.715027    2.239895    -40.340157    -6.648960    -5.162231    8.892946    7.064666    28.895550    26.542757    51.272663    -18.894075    -41.188515    -10.281088    18.648563    -38.794338    28.841013    -2.573130    -35.744881    -29.943665    -11.008906    24.178349    -24.060171    -10.023412    3.701528    28.264021    0.000000    0.000000    0.000000    5.046049    11.563168    -18.468092    2.673279    24.677111    -1.413007    -3.532936    -31.418200    -6.634803    0.000000    0.000000    0.000000    
-11.125103    150.923462    -9.870861    0.983730    1.835965    28.970850    -0.767982    3.069284    14.017659    -5.175221    -0.148814    4.659702    -0.635351    3.251880    -10.159453    13.851057    -3.358176    -8.139696    1.903691    2.173505    -6.478292    -42.724621    17.753485    -48.638531    -11.795114    -16.224695    -132.713638    2.311568    -40.324795    -6.615434    -5.146473    8.928695    7.058488    29.033365    26.609104    51.266106    -18.904888    -41.217484    -10.284679    18.595484    -38.843204    28.792360    -2.597486    -35.735519    -29.932087    -10.972660    24.136274    -24.101536    -10.022165    3.730234    28.268204    0.000000    0.000000    0.000000    5.030959    11.546102    -18.484177    2.675240    24.684687    -1.411558    -3.546486    -31.428299    -6.634287    0.000000    0.000000    0.000000    
-11.137269    150.924927    -9.882667    0.991822    1.846691    28.987619    -0.765688    3.074958    13.993552    -5.186618    -0.139585    4.652078    -0.634791    3.237968    -10.154874    13.839393    -3.370289    -8.135458    1.900917    2.178006    -6.467696    -42.715851    17.765011    -48.630386    -11.777690    -16.270487    -132.700623    2.308838    -40.321495    -6.601321    -5.121356    8.971525    7.043753    29.133703    26.673317    51.275864    -18.868874    -41.247803    -10.270704    18.448004    -38.913528    28.695423    -2.574963    -35.685467    -29.903925    -11.008942    23.947231    -23.922729    -10.001246    3.879234    28.144266    0.000000    0.000000    0.000000    5.023615    11.537705    -18.462355    2.694761    24.678711    -1.421281    -3.584131    -31.427912    -6.678537    0.000000    0.000000    0.000000    
-11.152648    150.922699    -9.895638    0.998609    1.858688    28.994360    -0.784029    3.072973    13.982870    -5.162102    -0.129770    4.648850    -0.621695    3.243675    -10.144217    13.793192    -3.414110    -8.128675    1.892053    2.176750    -6.468112    -42.707146    17.797920    -48.625511    -11.755052    -16.336401    -132.684128    2.321456    -40.323334    -6.585919    -5.112228    9.014050    7.033305    29.190247    26.808094    51.301533    -18.948404    -41.291786    -10.306294    18.406979    -38.987762    28.621483    -2.576064    -35.672539    -29.884972    -10.990624    23.890226    -23.927179    -10.021455    3.901714    28.128044    0.000000    0.000000    0.000000    5.015466    11.527751    -18.437944    2.707096    24.675545    -1.421322    -3.597825    -31.449823    -6.699714    0.000000    0.000000    0.000000    
-11.170714    150.921280    -9.909311    0.998682    1.872073    29.005268    -0.795114    3.065504    13.970783    -5.139063    -0.121351    4.645146    -0.631003    3.239737    -10.139665    13.768279    -3.422840    -8.126034    1.884375    2.193361    -6.473527    -42.707340    17.790991    -48.628101    -11.758559    -16.342215    -132.659805    2.341839    -40.322693    -6.570507    -5.104977    9.077491    7.011182    29.220066    26.911612    51.341129    -18.958071    -41.327503    -10.297237    18.323744    -39.052689    28.535355    -2.581701    -35.674084    -29.864796    -10.960711    23.860199    -23.940542    -10.032221    3.918275    28.104816    0.000000    0.000000    0.000000    5.019758    11.517386    -18.424707    2.717003    24.656456    -1.426327    -3.641813    -31.460461    -6.736428    0.000000    0.000000    0.000000    
-11.182883    150.923233    -9.923467    1.006795    1.881962    29.014894    -0.801250    3.063340    13.958479    -5.138514    -0.104196    4.641754    -0.612782    3.230395    -10.131285    13.736508    -3.433012    -8.123676    1.890848    2.194460    -6.467735    -42.704678    17.799849    -48.641510    -11.762369    -16.336365    -132.626984    2.328207    -40.307766    -6.577754    -5.081817    9.109684    7.001251    29.241758    27.047640    51.348740    -18.963665    -41.309036    -10.283236    18.326593    -39.026512    28.573261    -2.586091    -35.665684    -29.861969    -10.951789    23.814499    -23.954859    -10.051135    3.947154    28.109945    0.000000    0.000000    0.000000    5.014829    11.511396    -18.418560    2.711584    24.646072    -1.421591    -3.657805    -31.470871    -6.741256    0.000000    0.000000    0.000000    
-11.200607    150.924133    -9.941489    1.005670    1.895784    29.023695    -0.807112    3.060849    13.946795    -5.120487    -0.101208    4.637975    -0.615615    3.222678    -10.123449    13.704299    -3.428102    -8.121215    1.877878    2.190489    -6.475046    -42.705788    17.800377    -48.628021    -11.780400    -16.305893    -132.601028    2.331367    -40.303654    -6.562154    -5.074969    9.157123    6.985496    29.254055    27.146780    51.373207    -18.933628    -41.292885    -10.260847    18.294289    -39.020195    28.506531    -2.584043    -35.672527    -29.840340    -10.942667    23.781345    -23.967648    -10.077114    3.965072    28.109848    0.000000    0.000000    0.000000    5.017800    11.491664    -18.414108    2.709891    24.641315    -1.407238    -3.672468    -31.477278    -6.769159    0.000000    0.000000    0.000000    
